<svg class="main-svg" xmlns="http://www.w3.org/2000/svg" xmlns:xlink="http://www.w3.org/1999/xlink" width="2400" height="1300" style="" viewBox="0 0 1200 650"><rect x="0" y="0" width="1200" height="650" style="fill: rgb(255, 255, 255); fill-opacity: 1;"/><defs id="defs-938471"><g class="clips"><clipPath id="clip938471xyplot" class="plotclip"><rect width="1070" height="470"/></clipPath><clipPath class="axesclip" id="clip938471x"><rect x="80" y="0" width="1070" height="650"/></clipPath><clipPath class="axesclip" id="clip938471y"><rect x="0" y="100" width="1200" height="470"/></clipPath><clipPath class="axesclip" id="clip938471xy"><rect x="80" y="100" width="1070" height="470"/></clipPath></g><g class="gradients"/><g class="patterns"/></defs><g class="bglayer"/><g class="layer-below"><g class="imagelayer"/><g class="shapelayer"/></g><g class="cartesianlayer"><g class="subplot xy"><g class="layer-subplot"><g class="shapelayer"/><g class="imagelayer"/></g><g class="minor-gridlayer"><g class="x"/><g class="y"/></g><g class="gridlayer"><g class="x"><path class="xgrid crisp" transform="translate(168.81,0)" d="M0,100v470" style="stroke: rgb(228, 232, 235); stroke-opacity: 1; stroke-width: 1px;"/><path class="xgrid crisp" transform="translate(324.22,0)" d="M0,100v470" style="stroke: rgb(228, 232, 235); stroke-opacity: 1; stroke-width: 1px;"/><path class="xgrid crisp" transform="translate(479.64,0)" d="M0,100v470" style="stroke: rgb(228, 232, 235); stroke-opacity: 1; stroke-width: 1px;"/><path class="xgrid crisp" transform="translate(635.05,0)" d="M0,100v470" style="stroke: rgb(228, 232, 235); stroke-opacity: 1; stroke-width: 1px;"/><path class="xgrid crisp" transform="translate(790.47,0)" d="M0,100v470" style="stroke: rgb(228, 232, 235); stroke-opacity: 1; stroke-width: 1px;"/><path class="xgrid crisp" transform="translate(945.88,0)" d="M0,100v470" style="stroke: rgb(228, 232, 235); stroke-opacity: 1; stroke-width: 1px;"/><path class="xgrid crisp" transform="translate(1101.3,0)" d="M0,100v470" style="stroke: rgb(228, 232, 235); stroke-opacity: 1; stroke-width: 1px;"/></g><g class="y"><path class="ygrid crisp" transform="translate(0,483.42)" d="M80,0h1070" style="stroke: rgb(228, 232, 235); stroke-opacity: 1; stroke-width: 1px;"/><path class="ygrid crisp" transform="translate(0,396.84)" d="M80,0h1070" style="stroke: rgb(228, 232, 235); stroke-opacity: 1; stroke-width: 1px;"/><path class="ygrid crisp" transform="translate(0,310.26)" d="M80,0h1070" style="stroke: rgb(228, 232, 235); stroke-opacity: 1; stroke-width: 1px;"/><path class="ygrid crisp" transform="translate(0,223.68)" d="M80,0h1070" style="stroke: rgb(228, 232, 235); stroke-opacity: 1; stroke-width: 1px;"/><path class="ygrid crisp" transform="translate(0,137.11)" d="M80,0h1070" style="stroke: rgb(228, 232, 235); stroke-opacity: 1; stroke-width: 1px;"/></g></g><g class="zerolinelayer"><path class="yzl zl crisp" transform="translate(0,570)" d="M80,0h1070" style="stroke: rgb(255, 255, 255); stroke-opacity: 1; stroke-width: 2px;"/></g><g class="layer-between"><g class="shapelayer"/><g class="imagelayer"/></g><path class="xlines-below"/><path class="ylines-below"/><g class="overlines-below"/><g class="xaxislayer-below"/><g class="yaxislayer-below"/><g class="overaxes-below"/><g class="overplot"><g class="xy" transform="translate(80,100)" clip-path="url(#clip938471xyplot)"><g class="scatterlayer mlayer"><g class="trace scatter tracebcb9a0" style="stroke-miterlimit: 2;"><g class="fills"><g><path class="js-fill" d="M1043.5,470L0,470L0,469.13Q14.8,468.56 22.2,468.27C29.6,467.98 37.08,468.66 44.4,467.4C51.89,466.11 59.23,462.93 66.61,460.48C74.03,458.02 82.15,457.82 88.81,452.68C97.46,446 103.23,429.65 111.01,419.78C118.09,410.79 126.01,404.19 133.21,395.54C140.83,386.37 146.84,371.24 155.41,366.11C162.1,362.1 171.47,368.39 177.62,362.64C190.66,350.43 188.68,284.35 199.82,263.94C206.05,252.53 214.91,249.78 222.02,241.43C229.77,232.33 236.6,220.59 244.22,211.13C251.42,202.19 258.55,192.87 266.43,186.02C273.45,179.91 281.1,175.68 288.63,171.3C295.91,167.06 303.52,164.17 310.83,160.05C318.33,155.82 325.42,149.85 333.03,146.2C340.24,142.73 347.81,140.86 355.23,138.4C362.61,135.95 370,133.51 377.44,131.48C384.8,129.47 392.21,127.73 399.64,126.28C407.01,124.84 414.47,124.26 421.84,122.82C429.27,121.37 436.59,118.63 444.04,117.62C451.39,116.63 458.86,117.48 466.24,116.76C473.66,116.04 481.25,115.74 488.45,113.3C496.08,110.71 503.14,104.67 510.65,101.17C517.94,97.77 525.33,94.39 532.85,92.52C540.14,90.71 547.69,91.21 555.05,89.92C562.49,88.62 569.89,86.73 577.26,84.72C584.7,82.69 592.01,79.68 599.46,77.8C606.81,75.94 614.29,75.19 621.66,73.47C629.09,71.73 636.42,69 643.86,67.41C651.22,65.84 658.69,65.39 666.06,63.95C673.49,62.5 679.55,60.28 688.27,58.75C700.48,56.61 720.41,54.99 732.67,53.56C741.34,52.55 747.49,52.11 754.87,50.96C762.29,49.8 769.67,48.07 777.07,46.63C784.47,45.19 791.88,43.74 799.28,42.3C806.68,40.86 810.47,39.09 821.48,37.97C852.33,34.84 968.2,38.19 999.1,36.24C1010.06,35.55 1013.92,34.79 1021.3,33.64Q1028.72,32.48 1043.5,29.31" style="fill: rgb(35, 134, 54); fill-opacity: 0.1; stroke-width: 0;"/></g></g><g class="errorbars"/><g class="lines"><path class="js-line" d="M0,469.13Q14.8,468.56 22.2,468.27C29.6,467.98 37.08,468.66 44.4,467.4C51.89,466.11 59.23,462.93 66.61,460.48C74.03,458.02 82.15,457.82 88.81,452.68C97.46,446 103.23,429.65 111.01,419.78C118.09,410.79 126.01,404.19 133.21,395.54C140.83,386.37 146.84,371.24 155.41,366.11C162.1,362.1 171.47,368.39 177.62,362.64C190.66,350.43 188.68,284.35 199.82,263.94C206.05,252.53 214.91,249.78 222.02,241.43C229.77,232.33 236.6,220.59 244.22,211.13C251.42,202.19 258.55,192.87 266.43,186.02C273.45,179.91 281.1,175.68 288.63,171.3C295.91,167.06 303.52,164.17 310.83,160.05C318.33,155.82 325.42,149.85 333.03,146.2C340.24,142.73 347.81,140.86 355.23,138.4C362.61,135.95 370,133.51 377.44,131.48C384.8,129.47 392.21,127.73 399.64,126.28C407.01,124.84 414.47,124.26 421.84,122.82C429.27,121.37 436.59,118.63 444.04,117.62C451.39,116.63 458.86,117.48 466.24,116.76C473.66,116.04 481.25,115.74 488.45,113.3C496.08,110.71 503.14,104.67 510.65,101.17C517.94,97.77 525.33,94.39 532.85,92.52C540.14,90.71 547.69,91.21 555.05,89.92C562.49,88.62 569.89,86.73 577.26,84.72C584.7,82.69 592.01,79.68 599.46,77.8C606.81,75.94 614.29,75.19 621.66,73.47C629.09,71.73 636.42,69 643.86,67.41C651.22,65.84 658.69,65.39 666.06,63.95C673.49,62.5 679.55,60.28 688.27,58.75C700.48,56.61 720.41,54.99 732.67,53.56C741.34,52.55 747.49,52.11 754.87,50.96C762.29,49.8 769.67,48.07 777.07,46.63C784.47,45.19 791.88,43.74 799.28,42.3C806.68,40.86 810.47,39.09 821.48,37.97C852.33,34.84 968.2,38.19 999.1,36.24C1010.06,35.55 1013.92,34.79 1021.3,33.64Q1028.72,32.48 1043.5,29.31" style="vector-effect: none; fill: none; stroke: rgb(35, 134, 54); stroke-opacity: 1; stroke-width: 4px; opacity: 1;"/></g><g class="points"/><g class="text"/></g></g></g></g><g class="zerolinelayer-above"/><path class="xlines-above crisp" d="M79,570.5H1150" style="fill: none; stroke-width: 1px; stroke: rgb(208, 215, 222); stroke-opacity: 1;"/><path class="ylines-above crisp" d="M79.5,100V570" style="fill: none; stroke-width: 1px; stroke: rgb(208, 215, 222); stroke-opacity: 1;"/><g class="overlines-above"/><g class="xaxislayer-above"><g class="xtick"><text text-anchor="middle" x="0" y="586.6" transform="translate(168.81,0)" style="font-family: 'Segoe UI', Arial, sans-serif; font-size: 13px; fill: rgb(36, 41, 47); fill-opacity: 1; white-space: pre;"><tspan class="line" dy="0em" x="0" y="586.6">May 31</tspan><tspan class="line" dy="1.3em" x="0" y="586.6">2026</tspan></text></g><g class="xtick"><text text-anchor="middle" x="0" y="586.6" style="font-family: 'Segoe UI', Arial, sans-serif; font-size: 13px; fill: rgb(36, 41, 47); fill-opacity: 1; white-space: pre;" transform="translate(324.22,0)">Jun 7</text></g><g class="xtick"><text text-anchor="middle" x="0" y="586.6" style="font-family: 'Segoe UI', Arial, sans-serif; font-size: 13px; fill: rgb(36, 41, 47); fill-opacity: 1; white-space: pre;" transform="translate(479.64,0)">Jun 14</text></g><g class="xtick"><text text-anchor="middle" x="0" y="586.6" style="font-family: 'Segoe UI', Arial, sans-serif; font-size: 13px; fill: rgb(36, 41, 47); fill-opacity: 1; white-space: pre;" transform="translate(635.05,0)">Jun 21</text></g><g class="xtick"><text text-anchor="middle" x="0" y="586.6" style="font-family: 'Segoe UI', Arial, sans-serif; font-size: 13px; fill: rgb(36, 41, 47); fill-opacity: 1; white-space: pre;" transform="translate(790.47,0)">Jun 28</text></g><g class="xtick"><text text-anchor="middle" x="0" y="586.6" style="font-family: 'Segoe UI', Arial, sans-serif; font-size: 13px; fill: rgb(36, 41, 47); fill-opacity: 1; white-space: pre;" transform="translate(945.88,0)">Jul 5</text></g><g class="xtick"><text text-anchor="middle" x="0" y="586.6" style="font-family: 'Segoe UI', Arial, sans-serif; font-size: 13px; fill: rgb(36, 41, 47); fill-opacity: 1; white-space: pre;" transform="translate(1101.3,0)">Jul 12</text></g></g><g class="yaxislayer-above"><g class="ytick"><text text-anchor="end" x="76.4" y="4.55" transform="translate(0,570)" style="font-family: 'Segoe UI', Arial, sans-serif; font-size: 13px; fill: rgb(36, 41, 47); fill-opacity: 1; white-space: pre;">0</text></g><g class="ytick"><text text-anchor="end" x="76.4" y="4.55" style="font-family: 'Segoe UI', Arial, sans-serif; font-size: 13px; fill: rgb(36, 41, 47); fill-opacity: 1; white-space: pre;" transform="translate(0,483.42)">100</text></g><g class="ytick"><text text-anchor="end" x="76.4" y="4.55" style="font-family: 'Segoe UI', Arial, sans-serif; font-size: 13px; fill: rgb(36, 41, 47); fill-opacity: 1; white-space: pre;" transform="translate(0,396.84)">200</text></g><g class="ytick"><text text-anchor="end" x="76.4" y="4.55" style="font-family: 'Segoe UI', Arial, sans-serif; font-size: 13px; fill: rgb(36, 41, 47); fill-opacity: 1; white-space: pre;" transform="translate(0,310.26)">300</text></g><g class="ytick"><text text-anchor="end" x="76.4" y="4.55" style="font-family: 'Segoe UI', Arial, sans-serif; font-size: 13px; fill: rgb(36, 41, 47); fill-opacity: 1; white-space: pre;" transform="translate(0,223.68)">400</text></g><g class="ytick"><text text-anchor="end" x="76.4" y="4.55" style="font-family: 'Segoe UI', Arial, sans-serif; font-size: 13px; fill: rgb(36, 41, 47); fill-opacity: 1; white-space: pre;" transform="translate(0,137.11)">500</text></g></g><g class="overaxes-above"/></g></g><g class="polarlayer"/><g class="smithlayer"/><g class="ternarylayer"/><g class="geolayer"/><g class="funnelarealayer"/><g class="pielayer"/><g class="iciclelayer"/><g class="treemaplayer"/><g class="sunburstlayer"/><g class="glimages"/><defs id="topdefs-938471"><g class="clips"/></defs><g class="layer-above"><g class="imagelayer"/><g class="shapelayer"/></g><g class="infolayer"><g class="g-gtitle"><text class="gtitle" x="600" y="26" text-anchor="middle" dy="0.7em" style="opacity: 1; font-family: 'Arial Black'; font-size: 30px; fill: rgb(36, 41, 47); fill-opacity: 1; white-space: pre;">wanan9999/stars Star 增长趋势</text></g><g class="g-xtitle"><text class="xtitle" x="615" y="630.8" text-anchor="middle" style="opacity: 1; font-family: 'Segoe UI', Arial, sans-serif; font-size: 14px; fill: rgb(36, 41, 47); fill-opacity: 1; white-space: pre;">日期</text></g><g class="g-ytitle"><text class="ytitle" transform="rotate(-90,35.297265625,335)" x="35.297265625" y="335" text-anchor="middle" style="opacity: 1; font-family: 'Segoe UI', Arial, sans-serif; font-size: 14px; fill: rgb(36, 41, 47); fill-opacity: 1; white-space: pre;">累计 Star 数</text></g><g class="annotation" data-index="0" style="opacity: 1;"><g class="annotation-text-g" transform="rotate(0,1123.5,120.5)"><g class="cursor-pointer" transform="translate(1097,100)"><rect class="bg" x="1" y="1" width="51" height="39" style="stroke-width: 2px; stroke: rgb(35, 134, 54); stroke-opacity: 1; fill: rgb(255, 255, 255); fill-opacity: 0.9;"/><text class="annotation-text" text-anchor="middle" x="26.359375" y="28" style="font-family: 'Segoe UI', Arial, sans-serif; font-size: 22px; fill: rgb(35, 134, 54); fill-opacity: 1; white-space: pre;"><tspan style="font-weight:bold">509</tspan></text></g></g></g></g></svg>